<?xml version="1.0" encoding="UTF-8"?>
<svg id="Livello_1" xmlns="http://www.w3.org/2000/svg" version="1.1" viewBox="0 0 601.47 193">
  <!-- Generator: Adobe Illustrator 29.3.1, SVG Export Plug-In . SVG Version: 2.1.0 Build 151)  -->
  <defs>
    <style>
      .st0 {
        fill: #fff;
      }
    </style>
  </defs>
  <path class="st0" d="M120.44,145.56l1.98.56c.38-.29,1.54-.31,1.59-.75l1.29-.2c.47-.76,1.6-1.26,2.36-1.65l1.22-1.04c-.13-.27,4.14-3.79,3.93-4.5l1.14-.63c-.2-.65,3.85-3.62,3.88-4.31l1.85-1.13c.08-.65,2.31-2.37,2.15-2.73l1.16-.63c-.13-.38,1.31-1.23,1.69-1.37l.62-1.13,1.45-1.2,2.84-1.99c-.16-.25.75-.28.55-.74l1.39-.8c-.11-.26,2.32-2.49,2.18-2.92.54-.22,4.63-2.72,4.33-3.4l2.1-1.29.36-.78.44-1.36c.34-.46.85-.93,1.19-.83l1.45-1.2c.3.07,1.08.01,1.12-.43l4-.33c.1.15.61,1.12.87.98l.02,2.3,2.24,1.42,1.48-.16c-.27-.19.86-.25.88-.26.05-.01.88-.64,1.12-.42l.98-.87c.52.38,2-1.68,1.97-1.74.33-.12,1.57-1.15,1.82-.92l1.71-1.36,1.47-.15,1.25-1.24c.33.36,2.13-1.38,2.47-1.02l1.7-1.37c.67.15,2.64-1.18,2.87-.94l.98-.88,3.34-.02,1.05,2.26-.86,2.54-.08,1.64c-.37,1.74-1.04,3.08-1.46,4.73l.1.64-.51.54-.49,1.57-1.19,4.36-.31.56-.48.35-.13.8c-.17.21-1.25.36-.99.87l-1.23,1.03c-.35-.1-1.99.65-2.01.88-1.71-.43-3.57-.57-5.32-.51-.76-.51-2.95-2.69-3.43-2.9l-.18-1.28c-.35.23-1.16-.88-1.16-.88-1.32.89-4.61,1.54-5.22,2.88-.67-.78-2.33,2.55-2.95,2.58l-.62,1.15-1.59.76c-.1.96-1.75,1.63-2.07,2.34l-.14.8-.47.34-.62,1.13-1.24,3.52c-.1-.32-.54.71-.55.73l-.73,1.74-.38.97-.31.57-.28,1.61-.95.67-.13.81-.7,2.79-.35.76c-.35.32-.52,1.08-.54.74l-.39,2.22-.47,1.58-.64,2.37-.29,2.86c-.1-.31-.39.63-.48.33l-.39,2.21c-.31,1.35-.55,2.88-.55,4.27l-.93,1.71-.7.49-.45.13-2.06-.14c-.92-.41-2.04-3.09-2.25-3.72l-.21-1.09.1-.6c.38-3.69,1.16-7.28,1.93-10.88,1-2.98,1.83-6.06,2.24-9.17.35-.33.52-1.09.54-.74l.37-2.01.48-1.58.45-1.36.6-2.19.82-2.34.32-.58.43-2.41-.95-.58-1.85,1.12c.21.46-2.51,2.21-2.62,3.08l-1.39.79c-.1.92-2.86,2.54-2.66,3.26l-1.38.81c.12.24-1.6,1.75-1.8,1.97-1.93,2.01-3.56,4.78-5.58,6.9-.14.15-.71.1-.51.53l-1.63.95-.35.78-1.85,1.13c.05.18-.5.96-.79.88l-.62,1.14-1.15.63c-.09.52-1.31,2.01-1.22,2.27l-1.16.65-.11.59-1.38.8-.63,1.13c-.23.01-1.8,1.7-1.99,1.92l-.62,1.15-.81,1.1-.32.57-1.31,1.64-.35.75-1.13,1.68-.44.13-.49,1.57c-.99.09-2.52,1.21-3.41,1.69l-.38.97-4.73,3.33-3.36-1.01c-.82-1.99-1.85-1.42-.91-4.32l1.13-1.68c-.24-4.95,2.26-9.64,2.12-14.37.09.31.39-.64.47-.33l.35-2.02.82-1.09c.15-.36.32-1.13.34-.79l.25-1.41.31-.57.42-1.19.63-2.37.31-.57.37-.96.59-2.19c.37-.31.53-1.09.56-.73l.21-1.21.45-1.37.66-2.58-.19-1.29.41-1.18.59-.94c.12-.31.36-1.32.37-.97l.43-2.42c.09.3.38-.63.47-.32l.58-2.18c.82-1.3.7-3.06.59-4.49.47-.57.88-.6.99-.85,0-.05.16-1.52.41-1.18-.02-1.81.42-3.74.96-5.44l.37-3.26-1.04-1.22-.44.12-1.08,1.48c-1.05-.4-2.8,1.19-2.47,2.26l-1.56.56c-.24.34-1.51,2.45-1.86,2.36l-.43,1.18c-.35.22-.47,1.27-1,1.07l-.41,1.17c-.38-.39-1.15.33-1.4.8l-.1.6-.81,1.1-1.03,1.07-.88,1.51-.42,1.17c-.47-.11-1.45,1.96-1.64,2.21,0,.02-.44,1.04-.54.74l-.53,1.77c-.08-.3-.37.63-.47.33l-.41,1.17-.82,1.11-1.13,1.67-1.39.79c.06.2-3.87,5.11-4.86,5.18l-.41,1.17c-.42.01-1.6,1.45-1.53,1.61l-1.15.62c.12.27-.26.59-.52.54l-.61,1.13c-.09-.2-1.11.88-1.02,1.07l-1.64.96c.11.33-1.01,1.15-.94,1.9-1.25,1.2-2.98,2.27-3.93,3.48l-1.45-.06c.35,0-.65-.25-.97-.38,0,0-.72-.64-.94-.58-1.1-1.44-1.17-1.09-1.62-2.57l-.3-1.92.09-1.64.46-2.64c.14-1.61.6-3.47,1.29-4.95l-.09-.65.44-3.67.31-.56c.5-3.16,2.22-6.06,2.43-9.13l.25-1.41.47-2.62c.36-.32.51-1.08.55-.73l.31-1.81.11-.6.5-2.82.35-2.02-.09-.64-.13-.44.05-1.43c-.21.26-.25-.86-.26-.89l-.79-1.38c-.57-.09-1.4,1.02-1.71,1.36l-.37.98-.43.12s-.39.83-.51.53l-.48,1.58-.82,1.11-.59.93-1.09,1.46-.14.81-.47.33-.41,1.17c0-.35-.25.65-.38.97l-1.13,1.68-.47.32-.1.61-.81,1.11-.12.61-.83,1.1c-.02-.36-.17.42-.33.78l-.55.72-.31.58-.47.33-.42,1.17-.47.34-.12.6-.78.9s-.46,1.05-.54.74l-.72,1.74-1.13,1.67c-.77,1.24-1.31,2.85-2.17,4l-.34.76c-.32.29-.57,1.28-.58.94l-.45,1.38-.48.33-.18,1.01-1.32,1.62c-.13.32-.38,1.33-.38.98l-.45,1.38-.31.56-.93,1.7c-.12.33-.37,1.33-.37.98l-.61,1.13-.69,1.55-.3.57-.48.34-.52,1.77-.65,1.35-.3.56-.49.33-.09.61-.62,1.13-.39.98-.47.34-.55,1.97-.31.57-.99,2.11-.68.29-1.04,2.31-.31.58-.32.56-1.77,3.01-.1.6-.32.58-.71,1.74-.31.57-.96,1.9-.6,2.19c0-.35-.24.64-.38.97-.15.39-1.42.67-2.01.89l-1.28-1.05c.22-.53,0-1.36-.09-1.88l.32-.58c.21.02.65-1.02.74-.69l.36-2.01c.03.35.18-.42.33-.78l1.1-1.47c.12-.32.37-1.31.38-.97l.61-1.14c.09.3.38-.64.48-.34l.52-1.78.74-.7c.17-.35.31-1.12.35-.77l.45-1.38.9-2.75.31-.56.47-1.58c.35-.16.26-.61.73-.5l.41-1.17.3-.57.43-1.17.29-.57.83-1.09c.12-.33.36-1.33.37-.98l.21-1.22.32-.56.48-.34.89-1.5c0,.35.25-.65.37-.98l.47-.33c.16-.35.32-1.13.35-.76l.21-1.22.82-1.1.34-.77.47-.33.42-1.17.47-.34.15-.8,1.12-1.69.12-.59.65-1.35c0,.35.24-.64.37-.97.23,0,.65-1.02.75-.69l.42-1.18.58-2.18,1-.86,1.7-2.62.11-.6.31-.57,2.1-4.82c.1.32.52-.73.54-.74l.44-.12.71-1.75.46-1.38.3-.58c.21.02.65-1.01.75-.7l.41-1.17.48-.33.09-.6,1.1-1.47.11-.6.41-1.18c.21.02.65-1.02.74-.7l.23-1.2.3-.58c.22.01.65-1.02.75-.7l.46-1.38c.08.31.38-.63.47-.34l.62-1.12.61-1.15c.46.12.37-.33.51-.53l.77-1.94c.35-.16.24-.61.71-.5l.92-1.71.47-.34.11-.6.79-.92c1.06-1.44,1.83-2.4,3.16-3.8l.86-1.3.48-1.58.82-1.1,1.02-1.07c.37-.72,1.84-2.49,1.74-2.8l1.15-.63c.03-.29.37-1.01.78-.9l1.5-2.64.67-.3.63-1.14c.25.06.61-.26.5-.52,2.22-1.32,4.65-3.82,7.45-3.46-.34.02.43.18.79.34.27.12.43.49.73.54l.6,1.36-.15.8-.89,2.75-.18,1-.82,2.36-.53,1.77c-.02-.35-.19.41-.34.78l-.53.73c-.17.36-.34,1.13-.36.78l-.36,2c-.09-.32-.52.72-.54.73l-.45,1.38-.45,1.39c0-.35-.25.64-.39.96l-.47,1.58-.45,1.38-.48,1.57-.71,2.79-.3.57-.72,4.02-.33,4.3-.46,1.38c-.83,3.6-5.29,15.4.8,15.52,1.05-1.87,2.59-2.83,3.44-4.18.15-.25.27-1.3.81-1.1l.62-1.14c.77-.05,3.27-5.36,3.25-5.44l1.39-.8c-.09-.29.76-1.02.81-1.11l.11-.6.31-.57.82-1.11c.35-.31.52-1.08.55-.72l.6-1.15c.1.33.54-.7.55-.72l.44-.14.68-1.55.95-.65c.28-.69,1.5-1.84,1.4-2.05l1.62-.96c-.11-.27.26-.6.51-.53l.79-2.15c.09.32.52-.71.54-.74l2.04-2.13c1.26-1.32,1.68-2.58,2.96-3.86.24-.23,2.18-1.51,2.01-1.91l1.38-.81.42-1.17.71-.49c.14-.16,1.12-2.12,1.59-2l.62-1.13,1.38-.8.62-1.13c.35-.01,4.72-4.83,4.66-5.21l1.4-.79c-.22-.51,3.29-3.13,3.4-3.97l3.01-1.76c-.18-.33,1.15-1.21,1.43-.99,1.03-.89,5.57-2.78,5.85-.21l-.67,3.83c-.46-.11-.36.33-.5.53l-.49,1.57-.3.58-.48.33-.44,1.37-.82,1.11-.59.93-1.33,1.63c-.11.33-.37,1.34-.38.97l-.62,1.13-.41,1.18c0-.34-.25.65-.38.97l-1.12,1.69c-.12.31-.37,1.32-.38.97l-.19,2.25c-.1-.33-.52.71-.54.73l-.31.57-1.08,2.51-.3.57-.85,1.31-.11.6-.41,1.17-.3.57-.79.9c-.12.32-.36,1.32-.37.97l-.21,1.21-.49,1.6-.49,1.57c-.08-.3-.37.64-.47.33l-.21,1.21-.3.57-.86,1.31-.11.6-.48,1.58c-.02-.35-.25.66-.38.98l-.55.73-.11.6-.59,2.19-1.1,1.47c-.12.32-.36,1.32-.38.97l-.24,1.41c-.02-.34-.26.65-.38.98l-.41,1.17-.45,1.37-.44,2.43-.55,1.97-.31.58-.34.77-.48,1.58-.81,1.1c-.16.36-.32,1.12-.34.76l-.63,2.39-.3.56-.32.57-.7,2.78-.48.33-.16,1.01-1.19,3.12.22,1.07"/>
  <path class="st0" d="M185.84,138.82l2.82.5c-.32.1.72.53.74.55.15.11.74.76.84,1.18l1.14.62.12.43,1.04,1.23-.43,2.42c-1.2,2.64-1.74,3.89-2.88,5.72-.41.67-.18,1.01-.28,1.61l-.95.66-.1.6-.42,1.18-.48.33c-.38.82-.98.95-1.46,1.19-.35.19-3.12,1.15-3.15,1.31l-2.75.35c-.72-.27-1.27-1.25-1.53-1.93.15-.19-.2-1.03-.23-1.08l-.13-.43.47-2.63.77-3.19.32-.57.81-1.1.11-.6.56-1.98.31-.57.31-.58.45-1.36c.34-.16.24-.61.71-.5.36-1.35,1.96-2.95,3.29-3.36"/>
  <path class="st0" d="M367.51,84.47s-.16,2.15-.36,3.26l-.31.56-1.02,1.08-.42,1.17-.67.29-.69,1.55c-.13-.31-.47.5-.5.52l-.45.14-.34.76c-.4.47-1.73.91-1.76,1.77l-1.62.97-.34.76-1.62.97c-.05,1.1-1.62,1-1.64,2.21l-1.45,1.19-2.57,1.63c.15.34-1.2,1.12-1.45,1.2l-1.2,2.07s-.66.96-.61,1.15l-1.15.62c0,.34-.38,1.62-.9,1.51l-.62,1.13-.67.3c-.16,1.13-2.29,2.37-3.19,2.76.23.77-3.65,2.48-4.44,2.75-.73-.12-1.71-.48-2.08-1.2.44-2.31,1.47-4.44,2.09-7.11.27-.36,1.36-.59.61-1.14.64-.93,1.5-2.31,1.46-3.49.27.02,3.41-4.42,4.55-4.6l.68-1.54,1.7-1.37,1.58-1.8.53-.74,1.02-1.06c.5-.48,4.25-2.01,3.79-2.65l1.32-.4.61-1.13c1.06-.23,2.37-2.32,3.29-2.13l.65-1.33c.82-.28.89.31,1.2.21l.86-1.3,1.79-.73c.02-.63,1.76-.87,2.26-1.04l2.05,1.4.05.84M441.28,72.78c.68-1.33-.52-3.95-1.16-5.19l-.73-.54-1.35.59-.44.13-.6-.11c-.05,0-.88.65-1.12.44l-2.42,1.85c-.29-.29-.8.49-1.32.39-.27.31-2.15,1.56-1.99,1.93l-2.23.85c.32,1.07-3.79,2.94-3.53,3.53l-1.7,1.37-1.93,1.54-2.1,1.29c.13.25-1.39,1.5-1.73,1.56l-.69,1.54-.51.54-1.66,1.15-.88.27c-1.44.38-2.88-.19-3.45-1.65,1.15-1.77,1.52-3.25,2.46-4.55l.56-.73c.13-.33.37-1.32.38-.98l.4-2.22-1.71-2.16-1.3-.86-1.47.16-.61-.12-.43.13-1.23,1.04c.14.49-.48.29-.34.76-1.22.48-3.24,1.93-3.51,3.34l-1.14.63-.55.73-.66,2.59c-.03-.35-.19.42-.54.73l-.52,1.79-.41,1.16-.36,2.02-.18,1.02-.47.33-.97,3.15c-.48-.11-.34.39-.5.54-.42.38-1.9,1.14-1.98,1.73-.97.42-2.03,1.15-2.65,2.02l-.84.07-.97.87c-1.16-.14-3.24,1.21-2.69,2.22l-1.43,1-.6-.11c-.24.09-.85.63-.78.9-4.12,1.96-5.84,4.78-10.56,6.86l-1.57-.47c-.29-.22-.61-.09-.75-.56l.63-2.38.53-1.78.42-2.41.21-1.21.26-1.41.13-.8c.51-1.4.79-2.95,1.19-4.37l.62-2.38c-.08-2.7,1.32-5.16,1.86-8.19.22-.22.99-2.11.99-2.11.1.3.96-1.91.96-1.91.09.32.53-.72.55-.74.16-.18.86-.19,1.07-.22l.88-3.8c-.48-1.34-.88-2.01-2.33-2.07-.18.39-2.01,1.14-2.06,1.09l-2.65,2.02c-.44-.06-1.48.29-1.71.32l-.65.11-.43.13-1.22-.23c-.23.53-1.72.81-2.03.89-.03.01-1.14.06-.87.26l-2.05-.15c.13-.09-1.15.63-1.15.63l-1.08.23-1.32.38-1.27.2c-1.5.66-1.5.25-2.59.58-.45.13-2.24.84-2.24.84l-2.34,1.47-1.26.19c.27.2-.84.25-.93.46l-.91.46c-.3.27-1.77,1.65-1.83,2.18l-3,1.75-.35.77c-.06.05-.65.11-.47.33l-1.35.6-1.77,1.75-.18,1.03-.47.32-.42,1.18c-.1-.33-.54.7-.55.73l-1.22,1.03-.24,1.4-1.12.44-.96,1.9c-.09-.33-.53.71-.54.73-.61.83-1.13.81-1.7,1.37l-.13.8-.25,1.41c-.1-.32-.53.71-.54.73-.9,1.2-.19.65-1.81,1.97l-.21,1.21-1,2.11-.45,1.37c-.45-.29-.61,1.93-1.08,2.53-.18.27-.6,1.36-1.04,1.26-.22,2.01-.76,4.08-1.48,5.97l-1.21,1.04c-.2-.19-1.45.61-1.59.77-1.21,1.18-.99,2.11-3.2,2.74l-.93-.57.79-2.15c-.12.18-.21-.3-.12-.44l-.87-.97c.1-.12,0-.62-.13-.44l.63-2.39.11-1.85c.1.32.53-.72.55-.74.13-.18.39-.41.18-1l1.1-3.96.92-.45.15-2.06s.46-1.39.6-2.18l-.13-.43-.05-2.1s.99-1.17.25-1.4l1.36-1.84.02-2.49.86-1.31-.38-2.57-.93-.58-1.11-.81c-2.04.38-4.21.54-5.8,2.3-1.14.63-2.43,1.34-3.32,2.32-.48-.54-1.08,1.1-1.55.55l-.99.88c-.28-.21-1.61.67-1.41.99l-1.63.95c.24.54-.81.4-.59.94l-1.14.63c.1.33-1.98,1.77-2.24,2.09l-1.1,1.46-.1.62-.49.53-.63,1.14-.54.75-1.15.62c.18.25-.63.41-.71.49-.58.55-1.22,1.88-2.31,2.5-.71.41-1.85.55-2.63.79l-1.06-1.02.84-1.31.6-2.18.1-.6c.18-.34.69-.46.85-1.31l1.14-.63.33-1.8s.52-1.09.55-.75c-.03-.98.57-2.13,1.14-2.91.06.2.31-.21.27-.37l1.15-.63s1.01-1.76,1.1-1.47l.61-1.14c0,.35.26-.65.38-.98.1-.26.51-.28.98-.86l.9-2.76c.52.16.56-.65.77-.89.25-.29,1.24-.65,1.38-.8.22-.21.2-.73.39-.98l.71-.48.48-1.59.3-.57.63-1.14c0,.36.24-.65.37-.97.23-.59,1.47-1.85,2.18-2.94l1.18-.83.79-2.15.69-1.54.68-.3.41-1.17.11-.6.56-.73c.15-.36.31-1.13.33-.77l.45-1.39s.44-1.05.54-.73l.52-1.77c.15-.2.3-1.02.78-.9l.46-1.38.31-.57s.44-1.05.53-.73l.7-1.54c.14-.18.04-.64.49-.53l.5-1.59.83-1.09.68-1.55.7-.49.83-1.1.45-1.39c.14-.35.31-1.12.32-.76l.37-2.01-.96-1.62-3.21.47c-.16.36-2.95,2.25-2.65,3.26l-2.57,1.64c.22.72-1.25.7-1.42.98-.99,1.58-1.6,2.82-2.8,4.09l-1.63,2.19-.48.34-.48,1.58c-1.06.07-1.82,2.76-2.45,3.3l-1.19.84-1.92,5.05c-.24.26-1.88,1.58-1.77,1.78l-1.14.62-1.28,2.48s-.44,1.06-.54.73l-.52,1.78-.35.77-1.89,1.33-.82,2.35-.19,1.01-.46.32-.57,1.99-.36.77-1.6.95-.58.95-.81,3.38-.11.61c-.17.33-.8.64-1.49,1.4l-.63,2.38-.47.32-.31.58-.34,2.01-.18,1.01-.48.34-.64,2.38-1.69,1.36c-.21-.2-.64.03-.67.28-1.15-.15-3.04,1.17-3.85,1.82l-1.05,1.28c-1.28.89-4.35.23-5.01,3.68l-2.53,1.43-1.24,2.27c-1.22-.27-1.9,1.76-3.08,2.16l-.21,1.2-1.63.96-.8,1.1c-.23.3-.08.66-.76.71l-.42,1.18c-.56-.1-1.02,1.13-1.28,1.42-.15.16-.71.11-.51.53-.9.41-3.04,1.64-3.2,2.77-.64-.07-1.46.96-2.29,1.24l-4.54,3.36c-.48-.54-1.08,1.1-1.56.57l-1.46,1.18c-.36-.33-.49.24-.68.29l-1.08.23-2.45-.23-.77-.34-2.55-.87s-1.06-.45-.73-.54c-.98-.25-1.99-.64-2.99-.73l-.49-1.97c-.15.33-.02-.46-.26-.88l-.5-.71-.12-1.69c-.47-.06-.22-.44-.49-.7l-.12-1.69-.3-.68-.13-.43.39-2.21c-.13.32-.02-.7-.23-1.09l.7-2.78.3-.58.38-.97.22-1.21-.1-.65-.12-.44.59-2.18-.03-1.04.47-.33.62-1.14.36-2.02.11-.61.47-.32.76-1.96c.08.31.39-.63.46-.33l.83-1.1.74-1.94c.11.32.53-.71.56-.73l.98-.87.69-1.54.82-1.1.34-.77,1.02-1.07.1-.61c1.04-1.92,2.71-2.89,4.19-4.86l1.4-2.05.31-.56.61-1.14.89-1.52.43-.13s.39-.83.51-.52l.62-1.14c.38-.02,4.05-4.08,4.31-4.44l.58-.93,1.39-.8.63-2.38c.87-.19,1.75-1.09,2.38-1.66.34.26.73-.33,1.11-.4l.65-1.36c2.46-1.35,4.39-3.44,6.87-4.81-.21-.5,3.57-2.6,4.03-2.82l.34-.77,1.28-.19,1.69-1.37c.14.15,2.69-1.19,3.07-.9,1.78-1.8,4.91-3.38,7.18-4.14l1.17.41.26.88c-.63,1.51-.72,3.58-1.33,5.16l-.34.78-1.29,1.43-.61,1.14c-.24.05-1.21.45-.99.87l-1.46,1.2-1.38.78c-.15,2.05-2.72,3.07-3.95,4.72l-.92,1.7-.32.57-.3.57-.59,3.43c.27.68.74,1.43,1.32,1.9,1.56.2,3.4-.57,4.46-1.7l1.91-.31c-.16-.24.76-.26.56-.73l1.46-1.19,1.45-1.21c.95-.44,3.51-1.88,3.66-3.1.09.31.38-.63.47-.32l.54-3.01.21-1.22.7-2.79.54-.73.31-.58.57-1.97c.05.2.31-.2.27-.37l1.39-.79.65-1.34.92-.46.4-1.17c.38.08.88-.86,1.22-1.03l.25-1.41.47-.33.11-.6.99-2.12c.93-2.08,2.7-1.49,3.29-5.64l-.65-1.15-3.01-.54c.26.19-.87.25-.93.46l-1.92.27-1.45,1.21c-.15-.14-1.32.37-1.35.59l-1.89.09-.74.7-2.57.38c.27.2-.83.26-.88.27l-1.59.75-2.18.65-2.37.42c-.02.2-1.86,1.19-2.26,1.06l-1.62.95-1.86,1.15-1.22,1.02c-.24-.23-.92.51-1.52.35l-1.89,1.33-1.4.79-2.09,1.29-2.17,1.7c-.25-.28-2.12,1.21-2.6,1.82l-1.4.79c-.1.75-1.77,1.68-1.59,2.01l-3.28,2.12c.24.47-1.21.76-1.29,1.44l-1.63.97-.61,1.12c-.42.01-1.16.93-1.46,1.21-.03.02-.37.83-.5.53l-.63,1.14c-.9.2-5.2,4.96-6.07,6.19l-1.15.63c.08.29-1.52,2.26-1.72,2.61l-.3.56s-.45,1.06-.55.75l-.96,1.9c-.14.19-.05.64-.5.54l-.62,1.13c-.49-.14-.9,1.05-1.25,1.24l-.82,1.09-.95,1.92c-.15.19-.3,1.01-.79.9l-.62,1.13c-.58-.13-.72,1.02-.85,1.31l-.47.33-.62,1.13-.69,1.54-.12.62-.47.32c-.14.86-.09,1.68-.46,2.62l-.48.33-.14.8-.48.34-.22,1.21-.47.33-.1.61-.47.34-.82,1.09.22,2.33c-.65.65-1.14,1.8-1.11,2.7-.03-.35-.18.43-.55.75l-.35.77-.58,2.18-.59,2.19c-.54,1.1-1.51,7.58-1.36,8.9.14-.31.03.45.05.84l.76,1.59.09.64c-.27,1.39-.84,3.81-1.69,4.9l-.04,1.45c.64.25.44.85.78,1.39l-.31,1.8.13.44.69.75.14.44-.04,1.46.12.43.13.44c.16.3,1.38,1.63,1.6,1.53l.63,1.15c.84.03,1.89,2.31,2.33,2.07l.79,1.4,1.12.82c1.6.07,3.31.74,4.71,1.45,1.16-.56,2.98-.91,3.93-.97l.84-.06.64-.1,1.25.02,2.16-1.69c.93,1,2.57-1.08,3.94-1.17l.44-.14,1.22-1.02c.35.26,1.07-.25.94-.67l1.15-.62.66-1.34c1-1.11,1.93-2.82,3.42-2.92l.63-1.15,1.16-.62.33-.76.89-1.52.47-.34.45-1.37,1.14-.61c.04-.48.53-1.07,1.02-1.08l.26-1.42,1.09-1.46.61-1.14,1.12-.43c-.15-.51,2.46-3.3,2.76-3.88l.72-1.75c.25-.26,1.64-.88,1.49-1.39l1.16-.63,2.09-4.83c.47-.03,1.68-1.74,2.1-1.29l2.44-2.06.61.1-.43,2.42-.41,1.18-.77,3.19-.25,1.41c-.1-.3-.39.64-.48.33-1.18,1.43-1.66,4.35-1.9,6.1-.09-.29-.39.64-.47.34l-.43,1.17-.3.57c-.14.63-1.21,4.26-.82,4.64l-.49,2.82v1.04s1.24,1.25,1.24,1.25l.52.72,2.31-.21c-.12-.41.58-.57.79-.9l1.28-.19c.88-.8,2.55-1.72,2.91-2.39l.31-.57s.45-1.06.55-.74l.4-1.18.49-.32.15-.81.82-1.11c.15-.35.32-1.12.35-.77.14-2.73,2.1-5.08,2.18-7.72.79-.16,2.77-3.81,3.51-4.57.19-.2,1.46-1.18,1.33-1.63l1.15-.63c-.08-1.09,1.92-2.4,2.02-3.18l1.61-.96c-.17-.4,2.01-1.7,2.11-2.54l1.15-.62c-.05-.39.82-1.76,1.06-1.28l1.33-1.63.38-.99c.32-.42.71-.87,1.22-1.02,1.09-.32,2.9-2.38,3.14-3.6l1.11-.44.36-.76c1.54-.48,1.9-1.03,2.95-.31l-.09,1.65-.34.77-.38.96-.45,1.39-1.68,7.17-.13.81-.72.49-.02,1.25c0-.35-.25.65-.57.93l-.66,2.59-.17,1.02-.07,1.44-.85,6.07.12.46.52,1.75s.07,1.14.27.86l-.05,1.45c.65,1.43,1.17,1.83,2.77,1.95l.77-.91,1.28-.2c.03-.16,1.44-.91,1.59-.74l4.24-2.79,1.21-1.03c.73.24,3.11-1.83,3.75-2.46l.6,1.36c.52.71.78,1.93.54,2.79.2-.26.26.85.27.88,0,.01.38.1.1.64l1.58,2.77.94.59c4.7,1.48,5.52-3.39,7.36-2.87l1.26-1.23c.44.33.82-.75,1.31-.39.38-1.2,1.54-2.72,3.1-3.4l.66-1.34.33-.77,2.29-1.27.94-2.94,1.62-.96c-.06-.4,1.22-2.47,1.2-3.32l1.17-.62c-.24-.8,1.45-3.28,2.85-3.24l.79-2.15c.17.24.39-.29.47-.33l1.6-.76,1.95-4.01c.18.24.4-.32.48-.34l.8.14,1.83-2.17,1.02.18c.42.69,1.34,1.61,1.48,2.13.01.03.07,1.14.26.88-.33,2.2-.73,4.48-.76,6.73-.25-.34-.4,1.12-.42,1.17l-.47.32-.38,2.23-.67,1.33-.74,4.22c.19-.25.14.74.33.48l.04,2.09,1.41,1.48,3.43.61c.25-.57,1.46-.6,1.62-.97l1.13-1.66.61-2.18.5-.54c.32-.33.42-1.33.73-1.73.54-.74,3.29-3.76,3.54-4.78,2.51-.91,4.47-2.34,5.7-3.98.07-.11,2.44-.94,2.13-1.5l1.22-1.04,1.22-1.02c1.08-.71,7.79-5.37,8.43-5.37l1.14,1.85.56.32v1.24s.52.52.52.52c-.56,1.57-3.04,10.33-3.11,11.71l-.31.57-.04,1.45c.04.38-.09,1.17.06.84l.35,1.5c.21-.06.95.64,1.07,1.03l2.76-.35.73-1.75c-.02-.6.39-1.03.28-1.6l.42-1.18.49-1.57.1-.62.87-1.29c.15-.36.32-1.13.34-.78l.69-1.54.81-1.11.99-2.12c.85,0,1.07-1.11,1.31-1.42,0-.03.43-1.06.54-.74l.4-1.18.31-.56.12-.59,1.49-2.66.71-.49.93-1.7c.54.29.54-.96.61-1.15.24-.57,1.75-2.49,2.46-3.31l2.89-3.42c.23-.31,1.42-1.19,1.3-1.45l1.62-.96c-.15-.37,2.74-2.5,2.59-2.86l2.57-1.63c-.1-.57.43-.94.95-.66-1.19,3.35,2.5,3.88,2.66,6.07l2.42.44,2.2-.66.83-.06c.19-.07,1.07-.85,1.35-.6.82-.76,1.82-1.51,2.85-1.98l.69-1.55c.38.1,1-1.19,1.05-1.26l.31-.58.41-1.18.45-1.38.49-1.57c.12-.32.37-1.32.37-.97l.4-2.23c.02.37.18-.4.34-.75l1.28-1.44.6-2.18.31-.57Z"/>
  <path class="st0" d="M508.88,32.62l.96.37,1.18.41c-.6.18.83,1.96,1.2,1.46l-.21,1.22c.13-.19.24.3.13.43l.8,1.39c.98-.49.57,2.7.51,3.01l-.63,1.13-.48.33-.09.61-.75.69-.77,1.96c-.29.39-.94,1.31-.89,1.5l-1.56,1.8s-2.33.18-2.4.61l-2.89-.09c.36-.01-.42-.18-.77-.34l-1.67-1.14-.24-.86c-.14-.42-1.01-.86-1.29-1.06-.22-.18-.36-1.02-.43-1.12-.74-2.01.69-3.9.84-5.87.94-1.42,4.64-2.36,4.81-3.73.34-.12,1.58-1.16,1.83-.91l1.22-1.04,1.59-.74"/>
  <path class="st0" d="M555.06,68.79l-1.58.76-.34.78-1.16.63c-.01,1.3-1.99,1.52-2.15,2.74l-1.39.79c.04.1-1.39,1.74-1.76,1.77l-.62,1.14-.92.47-.61,1.13c-1.11.38-1.88,1.13-2.41,1.86-.09.12-.52.45-.68.29l-.62,1.16c-.29,0-4.76,4.61-4.82,4.95l-1.39.79-.65,1.35c-.41.03-1.48,1.18-1.53,1.59l-1.39.8c.24.44-.56.54-.74.69-.27.24-1.41,1.92-1.95,1.54-.28.31-2.6,2.23-2.83,1.99l-1.94,1.54c-.08-.07-2.82.88-3.04.71l-.62-1.16c-.31.1-1.68-1.42-1.33-1.9l-1.54-.68c-.27-.2-.6-.07-.74-.55l.49-2.82c-.47-.06-.22-.44-.49-.71.45-1.65,7.12-6.91,7.96-6.3l.99-.85c.34.33,3.02-1.55,2.84-1.99l1.15-.62c.08-.62.99-.99.85-1.31l1.15-.62.38-.97c3.57-4.82,6.86-7.68,10.32-13.77l-.09-.64c-.13-1.1.73-2.2,1.74-2.81l.26-2.65c.01-.09.4-.79.5-.54l.14-3.08-1.17-1.66-2.37-.62-.84.05-.44.13-1.28.19c-1.6-.49-3.5-.38-5.14-.28l-2.21,1.89c-.34-.33-.47.21-.67.3l-.43.13-1.22-.22-.45.13c-.21.12-.56.82-.91.46l-1.09,1.47-1.11.43-.34.78-1.39.79c.1.2-1.08,1.28-1.26,1.23l-.69,1.54c-.36-.08-1.55,1.77-1.62,2.2l-1.63.96c-.03.48-.48,1.3-1.05,1.27l-.66,1.34-.89,1.5-.81,1.11-1.61,2.01c-.18.25-.26,1.04-.78.89l-.66,1.34c-.11-.29-.47.5-.49.53l-.44.13-.35.77c-.4.46-1.73.91-1.77,1.75l-1.79.73-.68,1.54-1.53,1.61-1.62.96c.22.45-2.04,1.55-1.8,1.97l-1.16.62c.24.53-.81.41-.56.94l-1.15.63-.62,1.14c-.26.2-.98.65-1.32.4-1.07,1.91-2.6,2.6-4.03,4.06-.24-.22-1.84.83-1.66,1.17-.85.44-1.85,1.49-2.61,1.83-.3.11-1.08-.13-1.12.43l-2.25-.2-.22-1.07c.75-1.64,1.01-3.62,1.56-5.32l.31-.57.68-3.82.44-1.38.39-.98c.15-.34.32-1.12.34-.76l.79-2.15.31-.58s.45-1.04.55-.73l.55-1.98c.1.33.53-.72.55-.74l.94-.66.82-1.11.34-.76.32-.57.21-1.21c.08.3.38-.64.48-.34l.62-1.12.44-.14,1.24-3.53c-.07-.38-.68-.75-.43-1.12l-1.49-2.13c-.23-.16-.55-.08-.78-.34l-1.86,1.13-.62,1.14c-.26-.07-.63.26-.51.54l-3.28,2.11c.15.32-1.43,1.47-1.52,1.61l-.35.76-.64.09c-.77.97-1.55,1.07-2.37,1.67-.52.36-.97,2.22-1.8,1.97l-1.21,1.02c-.35-.25-.73.34-1.12.43l-.61,1.14c-.24,0-.93.33-.75.69l-2.33,1.46c.14.43-1.8,1.53-2.16,1.7l-.34.77-2.03.88s-1.05,1.3-1.15,1.87l-1.64.96c-.09,1.32-1.48,3.14-2.78,2.84l-.6,1.12c-.68.06-.74.94-1.19.84l-.62,1.14-1.38.79-.93,1.71-4.36,2.36-2.66-.26-.26-.88.25-1.4.1-.62.73-2.99.45-1.37.47-.33.31-.56,1.42-4.53.34-.77.31-.58.66-1.33.35-2.02c.09.3.39-.62.47-.33l.68-1.53c.02.34.25-.66.38-.97l.86-1.31.76-1.95c.14-.19.04-.64.51-.52l.31-1.81.11-.6.47-.33.31-.57.32-1.82.31-.57.81-1.1c.18-.25.27-1.04.78-.9l.52-1.78.71-.49.76-1.95c.61-.07.64-.5,1.18-.84l.42-1.17.85-1.29.69-1.54s.45-1.06.55-.75l.65-2.57c.1.31.53-.71.55-.74.44-.6,1.45-1.18,2-1.94.45-.6.34-.22,1.22-1.03l.82-2.34.12-.62c.33-.6.94-.89,1.75-1.75l.49-1.58.11-.61.48-.33.49-1.58c1.32-.93.67-.04,1.29-1.44.56-1.26,1.76-2.47,2.52-3.71l.34-.76.59-.95.99-2.1.71-.5.31-.57.44-1.38c.28-.5.26-.79.66-1.35.4-.54.97-1.01,1.12-1.66l-1.55-1.72-1.06.02-1.86,1.12-.11.6-.51.54c-.47.51-3.34,2.75-3.95,2.43l-2.1,1.28-1.22,1.03c-.73-.55-.83.92-1.39.8l-.61,1.14-.45.14-.56,1.98c-.08-.33-.52.71-.52.73l-.99.85-.39.99-.48.33-1.03,2.32c-.21.29-.08.64-.74.69l-.63,1.15-.68.29-.14.81c-.12.25-.53.27-.71.5l-.81,1.1-.83,1.1-.1.6-.9,1.51-.71.49-.65,1.34-.25,1.42c-.1-.3-.38.63-.48.33l-.76,3.18-.68.3-.58.94-.36,2.03c-.09-.32-.38.62-.47.33l-.65,1.34-.41,1.17-.88,1.51-.52.53-1.47,2.45-.46.32-.51,2.83c-.14.19-.04.63-.5.52l-.82,1.1-2.08,5.87-.81,1.11-.32,1.81c-.1-.32-.53.71-.75.71l-.49,1.57c-.09-.3-.38.65-.46.33l-.69,1.55-.49,1.57-.3.57-.45,1.37-.45,1.38-.11.6-1.25,1.24.19,1.27-.47.34-.31.58-.92,3.99-.11.6-.47.34-.31.57-.66,2.59-.43,1.18-.29.57-.54,1.77-.3.57-.91,2.75v1.24s-.64,2.4-.64,2.4l.15,2.71c-.65.61-.73,2.93-1.08,3.76l-.31.57-.22,1.2c-.56,1.22-1.3,2.96-.54,4.28l4.03.7,4.76-2.27.65-1.33.71-.5.5-2.81c.09.29.37-.63.47-.33l.29-1.62c.09.31.38-.64.48-.33l.44-1.38c.06.19.33-.21.28-.37l1.62-.96c-.08-.56,3.92-5.34,4.6-6.05.2-.2,1.31-1.42,1.65-1.16l.85-1.3c.3.27,2.1-1.04,2.49-1.23-.23-.54.82-.39.59-.93l1.39-.8.62-1.14,3.72-2.25c-.2-.44.39-.37.5-.55l.38-.96.48-.32.65-1.35c.38-.26.57-.75,1.15-.63l.61-1.13,1.64-.97c.08-.68,1.24-1.24,1.11-1.67,2.64-1.09,4.46-2.95,6.84-4.61-.04.01.74.19.78.35l.22,1.07-.6,3.42-.45,1.38-1.32,5.17.09.64-.77,3.18c-.09-.3-.39.65-.48.34l-.51,4.07c-.1-.33-.53.71-.74.69-.13.32-.38,1.31-.38.97l-.42,1.19c-.13,1.9-.67,4.06-1.64,5.72.15-.32.03.46.06.84,0,.22.5.57.21,1.1l1.29,2.08c.31-.08.77.63,1.12.83.65.35,3.08-.65,3.53-1.25.41-.54,1.47-1.8,1.67-1.17l.63-2.37.41-1.17.31-.57.3-.58s.46-1.06.54-.73l.46-1.39.31-.56.3-.58.63-1.13c.06.21.32-.21.27-.37l1.14-.61.34-.78,1.7-1.38,1.6-.74c-.2-.68,3.21-2.63,3.62-2.9-.15-.48,2.02-2.31,1.91-2.57l1.61-.96c-.2-.41,3.04-2.72,3.43-2.94.24-.12.79-1.02,1.17-.62.61-.6,1.57-.98,2.11-1.5.45-.4,1.49-1.96,2.45-2.06l1.29-1.43c.74-.37.52.32,1.01.19l.35,1.51-.27,1.61c-1.06,2.13-.52,4.74-2.02,6.71.19-.25.16.73.33.47l-.09,2.89c.19-.24.14.74.32.49-.43,1.21-.83,3.78-.04,4.97.57.03,1.11,2.34,1.02,2.47l1.2,1.44c-.16.7.78,2.14,1.22,2.51l.77.35.12.44s1.07.44.74.55l3.03.52,2.09-1.28c-.23-.54.81-.41.58-.95l1.58-.76c-.09-.6,1-.73,1.35-.59l1.3-1.44c1.52.14,1.37-1.67,2.77-1.58l.41-1.19c.59.15,2.61-3.39,4.01-3.86l2.08-2.34,1.53-1.59.52-.54c.18-.18,1.23-.39.98-.86l1.38-.8c.12-.68,3.07-2.76,3.13-3.61l2.1-1.29c-.07-.23,4.8-4.95,5.8-5.82.98-.86,2.8-3.39,4.21-3.84.37-.95,1.23-1.83,2.24-2.1-.21-.31,1.04-.37.78-.89,1.87-.96,3.34-2,5.11-3.04l.41-1.18c.07.2.32-.21.28-.38l1.15-.62c6.15-5.76-7.77-5.71-6.41-2.59M514.34,81.56l.42-2.34.32-.64.18-1.01c.29-.55,3.38-3.7,3.23-4.22l1.43-1.07,5.5-6.43.68-.3c.21-.19.87-1.56,1.29-1.43l1.2-2.09c.27.06,1.05-1.04,1.46-1.19l.76.34,3.44.6.49.72-.46,2.61-.7,1.55-.81,1.1-.73,1.74-.44.13c-.15.28-.44,2.08-1.17,1.86l-.62,1.14-.43.13-.61,1.14c-.29-.05-.84.73-.79.91l-1.62.95c-.26,2.14-4.06,2.57-4.78,3.54l-1.28.19-1.21,1.03c-.61-.14-1.27.59-1.52.35l-1.21,1.04c-.41-.3-1.81,1.09-2.02-.36Z"/>
</svg>